<mxfile host="65bd71144e">
    <diagram id="KhUbmHOfdFo0_PB4BV6G" name="第 1 页">
        <mxGraphModel dx="1541" dy="330" grid="1" gridSize="10" guides="1" tooltips="1" connect="1" arrows="1" fold="1" page="1" pageScale="1" pageWidth="827" pageHeight="1169" math="0" shadow="0">
            <root>
                <mxCell id="0"/>
                <mxCell id="1" parent="0"/>
                <mxCell id="2" value="" style="rounded=0;whiteSpace=wrap;html=1;" parent="1" vertex="1">
                    <mxGeometry x="410" y="110" width="530" height="290" as="geometry"/>
                </mxCell>
                <mxCell id="3" value="堆内存" style="text;html=1;align=center;verticalAlign=middle;resizable=0;points=[];autosize=1;strokeColor=none;" parent="1" vertex="1">
                    <mxGeometry x="414" y="90" width="50" height="20" as="geometry"/>
                </mxCell>
                <mxCell id="4" value="Date&lt;br&gt;String&lt;br&gt;&lt;div&gt;&lt;span&gt;window&lt;/span&gt;&lt;/div&gt;&lt;div&gt;&lt;span&gt;message:&quot;hello word&quot;&lt;/span&gt;&lt;/div&gt;&lt;div&gt;&lt;span&gt;fn:0xb00&lt;/span&gt;&lt;/div&gt;&lt;div&gt;&lt;span&gt;foo:0xa00&lt;/span&gt;&lt;/div&gt;" style="rounded=0;whiteSpace=wrap;html=1;align=left;" parent="1" vertex="1">
                    <mxGeometry x="430" y="160" width="120" height="80" as="geometry"/>
                </mxCell>
                <mxCell id="5" value="GO对象&lt;br&gt;(0x100)" style="text;html=1;align=center;verticalAlign=middle;resizable=0;points=[];autosize=1;strokeColor=none;" parent="1" vertex="1">
                    <mxGeometry x="445" y="130" width="60" height="30" as="geometry"/>
                </mxCell>
                <mxCell id="6" value="" style="rounded=0;whiteSpace=wrap;html=1;" parent="1" vertex="1">
                    <mxGeometry x="40" y="100" width="200" height="300" as="geometry"/>
                </mxCell>
                <mxCell id="7" value="ECS" style="text;html=1;align=center;verticalAlign=middle;resizable=0;points=[];autosize=1;strokeColor=none;" parent="1" vertex="1">
                    <mxGeometry x="45" y="80" width="40" height="20" as="geometry"/>
                </mxCell>
                <mxCell id="8" value="" style="rounded=0;whiteSpace=wrap;html=1;" parent="1" vertex="1">
                    <mxGeometry x="60" y="300" width="160" height="80" as="geometry"/>
                </mxCell>
                <mxCell id="9" value="全局执行上下文" style="text;html=1;align=center;verticalAlign=middle;resizable=0;points=[];autosize=1;strokeColor=none;" parent="1" vertex="1">
                    <mxGeometry x="60" y="280" width="100" height="20" as="geometry"/>
                </mxCell>
                <mxCell id="12" value="VO:GO(0x100)" style="rounded=0;whiteSpace=wrap;html=1;" parent="1" vertex="1">
                    <mxGeometry x="80" y="300" width="120" height="40" as="geometry"/>
                </mxCell>
                <mxCell id="13" value="var fn = 0xb00" style="rounded=0;whiteSpace=wrap;html=1;" parent="1" vertex="1">
                    <mxGeometry x="80" y="340" width="120" height="40" as="geometry"/>
                </mxCell>
                <mxCell id="16" value="parentScope:0x100,&lt;br&gt;函数体" style="rounded=0;whiteSpace=wrap;html=1;align=left;" parent="1" vertex="1">
                    <mxGeometry x="430" y="280" width="120" height="60" as="geometry"/>
                </mxCell>
                <mxCell id="17" value="foo函数对象(0xa00)" style="text;html=1;align=center;verticalAlign=middle;resizable=0;points=[];autosize=1;strokeColor=none;" parent="1" vertex="1">
                    <mxGeometry x="420" y="260" width="120" height="20" as="geometry"/>
                </mxCell>
                <mxCell id="18" value="" style="endArrow=classic;html=1;entryX=0.425;entryY=1.15;entryDx=0;entryDy=0;entryPerimeter=0;" parent="1" target="17" edge="1">
                    <mxGeometry width="50" height="50" relative="1" as="geometry">
                        <mxPoint x="465" y="230" as="sourcePoint"/>
                        <mxPoint x="485" y="300" as="targetPoint"/>
                    </mxGeometry>
                </mxCell>
                <mxCell id="19" value="" style="endArrow=classic;html=1;entryX=0.75;entryY=1;entryDx=0;entryDy=0;" parent="1" target="4" edge="1">
                    <mxGeometry width="50" height="50" relative="1" as="geometry">
                        <mxPoint x="530" y="300" as="sourcePoint"/>
                        <mxPoint x="536" y="353" as="targetPoint"/>
                    </mxGeometry>
                </mxCell>
                <mxCell id="34" value="" style="endArrow=classic;html=1;exitX=1;exitY=0.5;exitDx=0;exitDy=0;entryX=-0.008;entryY=0.638;entryDx=0;entryDy=0;entryPerimeter=0;" parent="1" source="12" target="4" edge="1">
                    <mxGeometry width="50" height="50" relative="1" as="geometry">
                        <mxPoint x="320" y="270" as="sourcePoint"/>
                        <mxPoint x="370" y="220" as="targetPoint"/>
                    </mxGeometry>
                </mxCell>
                <mxCell id="35" value="" style="rounded=0;whiteSpace=wrap;html=1;" vertex="1" parent="1">
                    <mxGeometry x="-75" y="200" width="160" height="80" as="geometry"/>
                </mxCell>
                <mxCell id="36" value="函数执行上下文foo" style="text;html=1;align=center;verticalAlign=middle;resizable=0;points=[];autosize=1;strokeColor=none;" vertex="1" parent="1">
                    <mxGeometry x="-85" y="180" width="120" height="20" as="geometry"/>
                </mxCell>
                <mxCell id="37" value="VO:AO(0x200)" style="rounded=0;whiteSpace=wrap;html=1;" vertex="1" parent="1">
                    <mxGeometry x="-55" y="200" width="120" height="40" as="geometry"/>
                </mxCell>
                <mxCell id="38" value="return 0xb00&lt;br&gt;执行完成出栈" style="rounded=0;whiteSpace=wrap;html=1;" vertex="1" parent="1">
                    <mxGeometry x="-55" y="240" width="120" height="40" as="geometry"/>
                </mxCell>
                <mxCell id="39" value="name:&quot;foo&quot;,&lt;br&gt;age:18,&lt;br&gt;bar:0xb00" style="rounded=0;whiteSpace=wrap;html=1;align=left;" vertex="1" parent="1">
                    <mxGeometry x="580" y="160" width="120" height="80" as="geometry"/>
                </mxCell>
                <mxCell id="40" value="AO对象（foo）&lt;br&gt;(0x200)" style="text;html=1;align=center;verticalAlign=middle;resizable=0;points=[];autosize=1;strokeColor=none;" vertex="1" parent="1">
                    <mxGeometry x="575" y="130" width="100" height="30" as="geometry"/>
                </mxCell>
                <mxCell id="41" value="parentScope:0x200,&lt;br&gt;函数体" style="rounded=0;whiteSpace=wrap;html=1;align=left;" vertex="1" parent="1">
                    <mxGeometry x="585" y="280" width="120" height="60" as="geometry"/>
                </mxCell>
                <mxCell id="42" value="bar函数对象(0xb00)" style="text;html=1;align=center;verticalAlign=middle;resizable=0;points=[];autosize=1;strokeColor=none;" vertex="1" parent="1">
                    <mxGeometry x="575" y="260" width="120" height="20" as="geometry"/>
                </mxCell>
                <mxCell id="46" value="" style="endArrow=classic;html=1;" edge="1" parent="1" target="39">
                    <mxGeometry width="50" height="50" relative="1" as="geometry">
                        <mxPoint x="670" y="300" as="sourcePoint"/>
                        <mxPoint x="720" y="250" as="targetPoint"/>
                    </mxGeometry>
                </mxCell>
                <mxCell id="54" value="因为parent Scope引用着foo函数的&lt;br&gt;所以foo的AO也不会销毁" style="edgeLabel;html=1;align=center;verticalAlign=middle;resizable=0;points=[];" vertex="1" connectable="0" parent="46">
                    <mxGeometry x="0.4862" y="-1" relative="1" as="geometry">
                        <mxPoint x="93" y="15" as="offset"/>
                    </mxGeometry>
                </mxCell>
                <mxCell id="47" value="" style="endArrow=classic;html=1;" edge="1" parent="1">
                    <mxGeometry width="50" height="50" relative="1" as="geometry">
                        <mxPoint x="622" y="213.5" as="sourcePoint"/>
                        <mxPoint x="628" y="270" as="targetPoint"/>
                    </mxGeometry>
                </mxCell>
                <mxCell id="49" value="&lt;b&gt;&lt;font style=&quot;font-size: 14px&quot;&gt;闭包执行的内存表现&lt;/font&gt;&lt;/b&gt;" style="text;html=1;strokeColor=none;fillColor=none;align=center;verticalAlign=middle;whiteSpace=wrap;rounded=0;" vertex="1" parent="1">
                    <mxGeometry x="295" y="40" width="170" height="20" as="geometry"/>
                </mxCell>
                <mxCell id="52" value="" style="endArrow=classic;html=1;entryX=0.042;entryY=0.167;entryDx=0;entryDy=0;entryPerimeter=0;" edge="1" parent="1" target="41">
                    <mxGeometry width="50" height="50" relative="1" as="geometry">
                        <mxPoint x="470" y="220" as="sourcePoint"/>
                        <mxPoint x="550" y="250" as="targetPoint"/>
                    </mxGeometry>
                </mxCell>
                <mxCell id="53" value="因为fn在引用bar所以不会销毁" style="edgeLabel;html=1;align=center;verticalAlign=middle;resizable=0;points=[];" vertex="1" connectable="0" parent="52">
                    <mxGeometry x="0.21" y="3" relative="1" as="geometry">
                        <mxPoint as="offset"/>
                    </mxGeometry>
                </mxCell>
                <mxCell id="55" value="" style="rounded=0;whiteSpace=wrap;html=1;" vertex="1" parent="1">
                    <mxGeometry x="-100" y="90" width="160" height="80" as="geometry"/>
                </mxCell>
                <mxCell id="56" value="函数执行上下文bar" style="text;html=1;align=center;verticalAlign=middle;resizable=0;points=[];autosize=1;strokeColor=none;" vertex="1" parent="1">
                    <mxGeometry x="-110" y="70" width="120" height="20" as="geometry"/>
                </mxCell>
                <mxCell id="57" value="VO:AO(0x300);&lt;br&gt;scopeChian:VO+parent scope(fooAO)" style="rounded=0;whiteSpace=wrap;html=1;" vertex="1" parent="1">
                    <mxGeometry x="-80" y="90" width="120" height="40" as="geometry"/>
                </mxCell>
                <mxCell id="58" value="console.log(name)&lt;br&gt;console.log(age)&lt;br&gt;执行完成出栈" style="rounded=0;whiteSpace=wrap;html=1;" vertex="1" parent="1">
                    <mxGeometry x="-80" y="130" width="120" height="40" as="geometry"/>
                </mxCell>
            </root>
        </mxGraphModel>
    </diagram>
</mxfile>